<svg width="171" height="37" viewBox="0 0 171 37" fill="none" xmlns="http://www.w3.org/2000/svg">
<g clip-path="url(#clip0_247_1312)">
<path d="M17.6721 28.4797C17.6721 31.2648 16.9257 33.3811 15.433 34.8287C13.9401 36.2762 11.8085 37 9.03801 37C6.77809 37 4.94873 36.4675 3.54994 35.4024C1.99025 34.2007 1.18331 32.494 1.12914 30.2822H1.93689C2.01734 32.2481 2.74341 33.7499 4.11513 34.7874C5.3522 35.7158 6.97962 36.18 8.99737 36.18C14.2428 36.18 16.8656 33.6132 16.8656 28.4797V22.0482H16.7843C16.3813 23.8508 15.3929 25.2981 13.8193 26.3902C12.2456 27.4823 10.5172 28.0284 8.63413 28.0284C5.86362 28.0284 3.69811 27.0046 2.1376 24.957C0.712531 23.1003 -1.08634e-06 20.7244 0 17.8293C-1.08634e-06 14.88 0.739621 12.4499 2.21887 10.539C3.85982 8.46312 6.09223 7.42516 8.91611 7.42514C10.7721 7.42516 12.44 7.99872 13.9196 9.14583C15.3993 10.293 16.3542 11.7674 16.7843 13.5691H16.8656V7.91641H17.6721V28.4797ZM16.825 17.8293C16.825 15.235 16.1658 13.037 14.8475 11.2353C13.3682 9.24189 11.3911 8.24519 8.91611 8.24517C6.3344 8.24519 4.30351 9.21439 2.82345 11.1528C1.47883 12.9004 0.806523 15.1259 0.806525 17.8293C0.806523 20.4786 1.43861 22.6495 2.70278 24.342C4.12866 26.2538 6.09223 27.2096 8.5935 27.2096C11.1489 27.2096 13.1933 26.2813 14.7268 24.4245C16.1256 22.677 16.825 20.4786 16.825 17.8293Z" fill="#59461B"/>
<path d="M38.3657 18.5256C38.3656 21.584 37.5723 24.1512 35.9855 26.2271C34.2632 28.5205 31.9364 29.6672 29.0051 29.6672C26.0999 29.6672 23.7731 28.5205 22.0246 26.2271C20.4641 24.1512 19.6838 21.584 19.6838 18.5256C19.6838 15.4946 20.4776 12.9279 22.0652 10.8253C23.8137 8.55854 26.1401 7.42516 29.0445 7.42514C31.9496 7.42516 34.2632 8.57229 35.9855 10.8665C37.5723 12.9416 38.3656 15.4946 38.3657 18.5256ZM37.5579 18.5256C37.5579 15.7405 36.8454 13.3783 35.4203 11.439C33.8327 9.30981 31.7074 8.24519 29.0445 8.24517C26.3815 8.24519 24.2566 9.30981 22.6698 11.439C21.2177 13.3508 20.4916 15.713 20.4916 18.5256C20.4916 21.3657 21.2041 23.7416 22.6292 25.6533C24.2168 27.7834 26.3552 28.8484 29.0445 28.8484C31.7345 28.8484 33.8598 27.7834 35.4203 25.6533C36.8454 23.7141 37.5579 21.3382 37.5579 18.5256Z" fill="#59461B"/>
<path d="M58.6 18.5256C58.6 21.584 57.8066 24.1512 56.2199 26.2271C54.4976 28.5205 52.1708 29.6672 49.2394 29.6672C46.3343 29.6672 44.0075 28.5205 42.259 26.2271C40.6985 24.1512 39.9182 21.584 39.9182 18.5256C39.9182 15.4946 40.712 12.9279 42.2996 10.8253C44.0481 8.55854 46.3745 7.42516 49.2788 7.42514C52.1839 7.42516 54.4976 8.57229 56.2199 10.8665C57.8066 12.9416 58.6 15.4946 58.6 18.5256ZM57.7923 18.5256C57.7923 15.7405 57.0797 13.3783 55.6547 11.439C54.0671 9.30981 51.9418 8.24519 49.2788 8.24517C46.6159 8.24519 44.491 9.30981 42.9042 11.439C41.452 13.3508 40.726 15.713 40.726 18.5256C40.726 21.3657 41.4385 23.7416 42.8636 25.6533C44.4512 27.7834 46.5896 28.8484 49.2788 28.8484C51.9689 28.8484 54.0942 27.7834 55.6547 25.6533C57.0797 23.7141 57.7923 21.3382 57.7923 18.5256Z" fill="#59461B"/>
<path d="M77.3813 29.176H76.5748V23.237H76.4935C75.9558 25.1754 74.9338 26.7317 73.4275 27.9059C71.9212 29.0801 70.1727 29.6672 68.182 29.6672C65.3311 29.6672 63.0986 28.5068 61.4848 26.1858C60.0589 24.1374 59.3459 21.5978 59.3459 18.5668C59.3459 15.59 60.072 13.0504 61.5242 10.9478C63.1381 8.59938 65.3573 7.63062 68.182 7.6306C70.2531 7.63062 72.0285 8.19731 73.5082 9.33066C74.9878 10.4641 75.9829 12.0412 76.4935 14.0621H76.5748V0H77.3813V29.176ZM76.5748 18.5668C76.5748 15.6176 75.9156 13.2283 74.5973 11.399C73.118 9.29649 70.9796 8.2452 68.182 8.24518C65.5732 8.2452 63.5423 9.33732 62.0894 11.5215C60.7981 13.4333 60.1525 15.7817 60.1525 18.5668C60.1525 21.3794 60.7846 23.7278 62.0487 25.6121C63.5017 27.7697 65.5461 28.8484 68.182 28.8484C70.8179 28.8484 72.9161 27.7697 74.4766 25.6121C75.8754 23.7003 76.5748 21.3519 76.5748 18.5668Z" fill="#59461B"/>
<path d="M81.5542 29.1759V7.93516H84.2785V12.2068C85.0928 10.7001 85.5877 9.83754 86.2772 9.35751C86.9668 8.87751 87.8413 8.13751 88.6147 7.84254C89.63 7.45531 91.08 7.0117 92.2594 7.61901L92.3077 10.6271C91.4408 10.1071 89.4146 10.7325 88.4373 11.1753C87.7312 11.4952 86.848 11.9438 86.3557 12.5466C85.7774 13.2548 85.2527 13.5632 84.99 14.4032C84.5959 15.6833 84.438 16.5355 84.438 18.0555V29.1759H81.5542Z" fill="#59461B"/>
<path d="M94.5248 16.9582H107.904C107.723 14.9121 107.212 13.3776 106.369 12.3545C105.076 10.7665 103.399 9.97253 101.338 9.9725C99.4732 9.97253 97.9052 10.6062 96.6342 11.8735C95.3633 13.1409 94.6601 14.8358 94.5248 16.9582ZM107.513 22.391L110.846 22.353C110.268 24.5264 109.032 26.6559 107.469 27.8559C105.906 29.0559 103.91 29.656 101.48 29.656C98.4198 29.656 95.9933 28.6993 94.2005 26.7859C92.4076 24.8725 91.5112 22.189 91.5112 18.7356C91.5112 15.1621 92.4175 12.3887 94.23 10.4152C96.0425 8.44186 98.3936 7.45516 101.283 7.45514C104.081 7.45516 106.366 8.42186 108.139 10.3552C109.912 12.2887 110.799 15.0088 110.799 18.5156C110.799 18.7289 110.792 19.0489 110.779 19.4756H94.4028C94.5341 21.809 95.2947 24.0938 96.4636 25.3339C97.6326 26.5739 99.753 27.1939 101.5 27.1939C102.8 27.1939 104.407 26.4045 105.326 25.7112C106.246 25.0178 106.975 23.9111 107.513 22.391Z" fill="#59461B"/>
<path d="M126.319 26.5559C125.006 27.6892 123.742 28.4893 122.527 28.9559C121.312 29.4226 120.008 29.656 118.616 29.656C116.318 29.656 114.551 29.0859 113.317 27.9459C112.082 26.8059 111.465 25.3491 111.465 23.5757C111.465 22.5357 111.698 21.5857 112.164 20.7256C112.63 19.8656 113.241 19.1756 113.996 18.6556C114.751 18.1355 115.602 17.7422 116.548 17.4755C117.244 17.2889 118.294 17.1088 119.7 16.9355C122.563 16.5888 124.671 16.1755 126.024 15.6954C126.037 15.2021 126.044 14.8888 126.044 14.7554C126.044 13.2887 125.709 11.6466 125.039 11.0465C124.133 10.2332 122.786 9.8265 121 9.82648C119.332 9.8265 118.101 10.1232 117.306 10.7165C116.511 11.3099 115.537 12.4153 115.543 14.4754L112.337 14.4658C112.652 12.9591 112.909 11.272 113.632 10.3452C114.354 9.41857 115.398 8.70521 116.764 8.20517C118.13 7.70517 119.713 7.45516 121.512 7.45514C123.299 7.45516 124.477 7.6685 125.593 8.09516C126.709 8.52187 127.452 9.17595 127.978 9.82262C128.503 10.4693 128.754 11.1686 128.964 12.1553C129.082 12.7687 129.141 13.8754 129.141 15.4754V20.2756C129.141 23.6224 129.021 24.6434 129.172 25.5301C129.324 26.4168 130.208 26.7972 131.357 26.5931L131.402 29.3384C131.402 29.3384 128.643 29.504 127.692 29.1368C126.917 28.8373 126.424 27.5559 126.319 26.5559ZM126.024 18.1634C124.737 18.6967 123.235 18.6413 120.622 19.1712C118.969 19.5411 118.25 19.6637 117.646 19.9304C117.042 20.197 115.866 20.3289 115.037 21.3352C114.371 22.1442 114.467 22.9665 114.467 23.8671C114.467 24.8271 115.254 25.6271 115.97 26.2672C116.685 26.9072 118.084 26.8359 119.463 26.8359C120.829 26.8359 122.044 26.5325 123.108 25.9258C124.172 25.3191 124.953 24.4891 125.453 23.4357C125.833 22.6224 126.024 21.4223 126.024 19.8356V18.1634Z" fill="#59461B"/>
<path d="M148.619 29.3325V26.6524C147.292 28.7591 143.546 29.8125 140.972 29.8125C139.303 29.8125 137.77 29.3458 136.371 28.4124C134.972 27.4791 133.889 26.1757 133.121 24.5023C132.352 22.8289 131.968 20.9055 131.968 18.7321C131.968 16.612 132.316 14.6886 133.012 12.9619C133.708 11.2352 134.752 9.91177 136.145 8.99172C137.537 8.07171 139.093 7.61169 140.814 7.61167C142.075 7.61169 144.993 7.8817 145.979 8.4217C146.964 8.96174 147.765 9.6651 148.382 10.5318V0.0113831H151.44V29.3325H148.619ZM134.619 18.7321C134.619 21.4522 135.184 23.4856 136.313 24.8323C137.443 26.179 139.991 27.4058 141.527 27.4058C143.077 27.4058 145.969 26.209 147.052 24.9223C148.136 23.6356 148.678 21.6722 148.678 19.0321C148.678 16.1253 148.126 13.9919 147.023 12.6319C145.919 11.2718 143.316 9.92768 141.701 9.92766C140.125 9.92768 137.262 11.2452 136.205 12.5519C135.148 13.8586 134.619 15.9187 134.619 18.7321Z" fill="#59461B"/>
<path d="M153.899 22.1439L156.551 22.1097C156.748 23.5364 157.544 25.0725 158.444 25.8325C159.344 26.5926 160.933 27.0833 162.548 27.0833C164.177 27.0833 165.606 26.8019 166.394 26.1286C167.182 25.4552 168.183 24.9419 168.183 23.5371C168.183 22.7238 167.725 21.6963 167.029 21.2296C166.543 20.9096 165.003 20.2262 163.072 19.7329C160.472 19.0662 158.89 18.8769 157.885 18.3902C156.88 17.9035 155.787 17.3409 155.269 16.4808C154.75 15.6208 154.49 14.6708 154.49 13.6307C154.49 12.684 154.704 11.8073 155.131 11.0006C155.558 10.194 156.139 9.52393 156.874 8.99055C157.426 8.57722 157.902 8.22721 158.854 7.94051C159.806 7.65386 160.827 7.51052 161.918 7.5105C163.559 7.51052 165.001 7.75053 166.242 8.23053C167.483 8.71056 168.399 9.36059 168.99 10.1806C169.581 11.0006 170.016 12.6508 170.24 14.0242L167.6 14.0061C167.443 12.9127 166.406 11.2846 165.651 10.6712C164.896 10.0578 163.001 9.86185 161.622 9.86183C159.993 9.86185 159.217 10.5779 158.521 11.1246C157.825 11.6713 157.477 12.3113 157.477 13.0447C157.477 13.5114 157.456 14.0421 157.745 14.4154C158.034 14.8021 158.708 15.3988 159.325 15.6522C159.679 15.7855 160.889 16.2582 162.623 16.7382C165.132 17.4183 166.827 17.5876 167.818 18.0209C168.81 18.4542 169.588 19.0843 170.153 19.911C170.718 20.7377 171 21.7644 171 22.9911C171 24.1911 170.655 25.3212 169.966 26.3812C169.276 27.4412 168.281 28.2613 166.981 28.8413C165.681 29.4213 164.21 29.7113 162.568 29.7113C159.849 29.7113 157.777 29.138 156.352 27.9913C154.927 26.8446 154.293 24.3974 153.899 22.1439Z" fill="#59461B"/>
</g>
<defs>
<clipPath id="clip0_247_1312">
<rect width="171" height="37" fill="white"/>
</clipPath>
</defs>
</svg>
