<svg width="24" height="24" viewBox="0 0 24 24" fill="none" xmlns="http://www.w3.org/2000/svg">
<rect width="24" height="24" rx="10" fill="white"/>
<path d="M12.2618 14.7248C11.544 14.7248 10.8556 14.4397 10.3481 13.9321C9.84048 13.4246 9.55532 12.7361 9.55532 12.0183C9.5555 11.3006 9.84073 10.6124 10.3483 10.105C10.8558 9.59753 11.5442 9.31248 12.2618 9.31248C12.9795 9.31248 13.6679 9.59753 14.1754 10.105C14.683 10.6124 14.9682 11.3006 14.9684 12.0183C14.9684 12.7361 14.6832 13.4246 14.1756 13.9321C13.6681 14.4397 12.9797 14.7248 12.2618 14.7248ZM12.2618 7.95821C11.1853 7.95837 10.1528 8.38613 9.39158 9.14738C8.63032 9.90864 8.20257 10.9411 8.20239 12.0176C8.20257 13.0942 8.63032 14.1267 9.39158 14.8879C10.1528 15.6492 11.1853 16.0769 12.2618 16.0771C13.3384 16.0769 14.3709 15.6492 15.1321 14.8879C15.8934 14.1267 16.3211 13.0942 16.3213 12.0176C16.3211 10.9411 15.8934 9.90864 15.1321 9.14738C14.3709 8.38613 13.3384 7.95837 12.2618 7.95821Z" fill="#0D0D0D"/>
<path d="M19.0274 17.4313C19.0274 17.7901 18.8849 18.1343 18.6312 18.388C18.3775 18.6418 18.0334 18.7843 17.6746 18.7843H6.84911C6.49022 18.7843 6.14603 18.6418 5.8922 18.3881C5.63837 18.1344 5.49569 17.7902 5.49551 17.4313V6.60594C5.49551 6.24695 5.63812 5.90264 5.89196 5.6488C6.14581 5.39495 6.4901 5.25234 6.84911 5.25234H17.6746C17.8523 5.25234 18.0282 5.28736 18.1925 5.3554C18.3566 5.42342 18.5058 5.52314 18.6314 5.64884C18.7571 5.77454 18.8567 5.92376 18.9246 6.08798C18.9926 6.2522 19.0276 6.42822 19.0274 6.60594V17.4313ZM17.6746 3.90143H6.84911C6.13129 3.90143 5.44288 4.18658 4.9353 4.69415C4.42774 5.20172 4.14258 5.89013 4.14258 6.60794V17.4334C4.14276 18.1511 4.42799 18.8393 4.93554 19.3468C5.44309 19.8541 6.13141 20.1392 6.84911 20.1392H17.6746C18.3923 20.1392 19.0805 19.8541 19.5881 19.3468C20.0957 18.8393 20.3809 18.1511 20.381 17.4334V6.60594C20.381 5.88812 20.0959 5.19971 19.5883 4.69214C19.0807 4.18457 18.3923 3.89941 17.6746 3.89941" fill="#0D0D0D"/>
</svg>
