<svg width="24" height="24" viewBox="0 0 24 24" fill="none" xmlns="http://www.w3.org/2000/svg">
<rect width="24" height="24" rx="10" fill="white"/>
<rect width="14" height="18.3077" transform="translate(5 2.84615)" fill="white"/>
<path d="M16.6014 5.35841C15.4484 4.25143 13.8526 3.64175 12.1081 3.64175C9.44336 3.64175 7.80442 4.73407 6.89876 5.65036C5.78259 6.77958 5.14258 8.27898 5.14258 9.76416C5.14258 11.6289 5.92256 13.0601 7.22872 13.5926C7.31642 13.6285 7.40465 13.6466 7.49116 13.6466C7.76672 13.6466 7.98506 13.4663 8.0607 13.1771C8.1048 13.0112 8.20695 12.6019 8.25138 12.4242C8.34646 12.0732 8.26965 11.9044 8.06227 11.6601C7.6845 11.2131 7.50857 10.6845 7.50857 9.99659C7.50857 7.95327 9.03006 5.78165 11.85 5.78165C14.0875 5.78165 15.4774 7.05337 15.4774 9.10045C15.4774 10.3923 15.1991 11.5886 14.6937 12.4692C14.3425 13.0811 13.725 13.8105 12.7769 13.8105C12.367 13.8105 11.9987 13.6421 11.7663 13.3485C11.5468 13.0709 11.4744 12.7124 11.5627 12.3387C11.6624 11.9165 11.7985 11.4761 11.9301 11.0504C12.1701 10.2728 12.3971 9.53836 12.3971 8.95241C12.3971 7.95016 11.7809 7.27671 10.864 7.27671C9.69867 7.27671 8.78572 8.46027 8.78572 9.97123C8.78572 10.7122 8.98264 11.2665 9.0718 11.4793C8.925 12.1013 8.05252 15.7992 7.88703 16.4965C7.79133 16.9036 7.21489 20.1186 8.169 20.3749C9.241 20.663 10.1992 17.5317 10.2968 17.1778C10.3758 16.8901 10.6524 15.802 10.8219 15.1331C11.3394 15.6316 12.1726 15.9686 12.9834 15.9686C14.5119 15.9686 15.8865 15.2808 16.854 14.032C17.7923 12.8208 18.3091 11.1326 18.3091 9.27857C18.309 7.8292 17.6866 6.4003 16.6014 5.35841Z" fill="#0D0D0D"/>
</svg>
