<svg width="111" height="21" viewBox="0 0 111 21" fill="none" xmlns="http://www.w3.org/2000/svg">
<path d="M11 0L14.7391 6.4432L22 8.02129L17.05 13.5815L17.7984 21L11 17.9932L4.20163 21L4.95 13.5815L0 8.02129L7.26089 6.4432L11 0Z" fill="#6E5942"/>
<path d="M36 0L39.7391 6.4432L47 8.02129L42.05 13.5815L42.7984 21L36 17.9932L29.2016 21L29.95 13.5815L25 8.02129L32.2609 6.4432L36 0Z" fill="#6E5942"/>
<path d="M61 0L64.7391 6.4432L72 8.02129L67.05 13.5815L67.7984 21L61 17.9932L54.2016 21L54.95 13.5815L50 8.02129L57.2609 6.4432L61 0Z" fill="#6E5942"/>
<path d="M86 0L89.7391 6.4432L97 8.02129L92.05 13.5815L92.7984 21L86 17.9932L79.2016 21L79.95 13.5815L75 8.02129L82.2609 6.4432L86 0Z" fill="#F2F2F2"/>
<path d="M79.2016 21L86 17.9932V0L82.2609 6.4432L75 8.02128L79.95 13.5815L79.2016 21Z" fill="#6E5942"/>
<path d="M100 0L103.739 6.4432L111 8.02129L106.05 13.5815L106.798 21L100 17.9932L93.2016 21L93.95 13.5815L89 8.02129L96.2609 6.4432L100 0Z" fill="#F2F2F2"/>
</svg>
