<svg width="35" height="35" viewBox="0 0 35 35" fill="none" xmlns="http://www.w3.org/2000/svg">
<path d="M17.444 0C13.7746 0.0170759 10.2008 1.18678 7.2312 3.34176C5.01064 4.94842 3.19909 7.05532 1.94297 9.49211C0.686864 11.9289 0.0214443 14.6272 0.00050976 17.369C-0.0204248 20.1107 0.603713 22.8189 1.82247 25.2746C3.04122 27.7303 4.82039 29.8646 7.01616 31.5051C7.10149 31.5887 7.19877 31.6587 7.30629 31.71C10.2767 33.8491 13.8439 35 17.5038 35C21.1636 35 24.7308 33.8491 27.7012 31.71C27.8131 31.65 27.9164 31.5754 28.0084 31.488C30.2037 29.8417 31.9806 27.7012 33.1951 25.2399C34.4096 22.7786 35.0276 20.0656 34.9991 17.3208C34.9705 14.576 34.2961 11.8766 33.0306 9.44108C31.7651 7.00561 29.944 4.90263 27.7149 3.30248C24.7325 1.15631 21.1518 0.00116093 17.4782 0H17.444ZM17.444 6.42054C18.8516 6.40447 20.2322 6.80719 21.4106 7.5776C22.589 8.34801 23.512 9.45135 24.0626 10.7476C24.6113 12.0438 24.7612 13.4743 24.4931 14.8562C24.2249 16.2381 23.5509 17.5086 22.5573 18.5052C21.5635 19.5028 20.2957 20.1821 18.915 20.4568C17.5343 20.7315 16.1032 20.5891 14.8036 20.0478C13.504 19.5065 12.3947 18.5907 11.6167 17.4169C10.8388 16.2431 10.4273 14.8643 10.4347 13.4558C10.448 11.5992 11.1896 9.8221 12.4997 8.50722C13.8115 7.19129 15.5866 6.44217 17.444 6.42054ZM25.3409 30.1902C22.9729 31.6634 20.2401 32.4442 17.4517 32.4442C14.6633 32.4442 11.9305 31.6634 9.56254 30.1902C8.82669 29.7435 8.13417 29.229 7.49403 28.6534C8.46395 27.2735 9.71004 26.1105 11.1532 25.2382C13.0595 24.1058 15.2356 23.5082 17.4526 23.5082C19.6696 23.5082 21.8456 24.1058 23.7519 25.2382C25.1945 26.1107 26.44 27.2737 27.4094 28.6534C26.7694 29.2288 26.0782 29.7428 25.3409 30.1902Z" fill="#382110"/>
</svg>
